# This file uses centimeters as units for non-parametric coordinates.

mtllib level_4_rotating_platform.mtl
g default
v 4.100000 -4.100000 44.099998
v 4.100000 4.100000 44.099998
v -44.099998 4.100000 -4.100000
v 4.100000 4.100000 -4.100000
v -44.099998 -4.100000 -4.100000
v 4.100000 -4.100000 -4.100000
v -4.523195 -4.100000 44.099998
v -4.523195 4.100000 44.099998
v -44.099998 4.100000 4.431154
v -44.099998 -4.100000 4.431154
vt 0.625000 0.000000
vt 0.625000 0.250000
vt 0.375000 0.500000
vt 0.625000 0.500000
vt 0.375000 0.750000
vt 0.625000 0.750000
vt 0.625000 1.000000
vt 0.875000 0.000000
vt 0.875000 0.250000
vt 0.125000 0.000000
vt 0.125000 0.250000
vt 0.580274 0.500000
vt 0.580274 0.250000
vt 0.272124 0.352876
vt 0.272124 0.397124
vn 0.000000 0.000000 -1.000000
vn 0.000000 0.000000 -1.000000
vn 0.000000 0.000000 -1.000000
vn 0.000000 0.000000 -1.000000
vn 0.000000 -1.000000 0.000000
vn 0.000000 -1.000000 -0.000000
vn 0.000000 -1.000000 -0.000000
vn 0.000000 -1.000000 0.000000
vn 0.000000 -1.000000 -0.000000
vn 1.000000 0.000000 0.000000
vn 1.000000 0.000000 0.000000
vn 1.000000 0.000000 0.000000
vn 1.000000 0.000000 0.000000
vn -1.000000 0.000000 0.000000
vn -1.000000 0.000000 0.000000
vn -1.000000 0.000000 0.000000
vn -1.000000 0.000000 0.000000
vn 0.000000 0.000000 1.000000
vn 0.000000 0.000000 1.000000
vn 0.000000 0.000000 1.000000
vn 0.000000 0.000000 1.000000
vn 0.000000 1.000000 0.000000
vn 0.000000 1.000000 -0.000000
vn 0.000000 1.000000 -0.000000
vn 0.000000 1.000000 0.000000
vn 0.000000 1.000000 -0.000000
vn -0.707928 0.000000 0.706285
vn -0.707928 0.000000 0.706285
vn -0.707928 0.000000 0.706285
vn -0.707928 0.000000 0.706285
s 1
g pCube929
usemtl initialShadingGroup
f 3/3/1 4/4/2 5/5/3
f 5/5/3 4/4/2 6/6/4
s 2
f 5/5/5 6/6/6 10/15/7
f 1/7/8 7/12/9 6/6/6
f 6/6/6 7/12/9 10/15/7
s 3
f 1/1/10 6/8/11 2/2/12
f 2/2/12 6/8/11 4/9/13
s 4
f 5/10/14 10/15/15 3/11/16
f 3/11/16 10/15/15 9/14/17
s 5
f 8/13/18 7/12/19 2/2/20
f 2/2/20 7/12/19 1/1/21
s 6
f 2/2/22 4/4/23 8/13/24
f 3/3/25 9/14/26 4/4/23
f 9/14/26 8/13/24 4/4/23
s 7
f 8/13/27 9/14/28 7/12/29
f 7/12/29 9/14/28 10/15/30
g default
v 4.100000 -4.100000 44.099998
v 4.100000 4.100000 44.099998
v -44.099998 4.100000 -4.100000
v 4.100000 4.100000 -4.100000
v -44.099998 -4.100000 -4.100000
v 4.100000 -4.100000 -4.100000
v -4.523195 -4.100000 44.099998
v -4.523195 4.100000 44.099998
v -44.099998 4.100000 4.431154
v -44.099998 -4.100000 4.431154
vt 0.625000 0.000000
vt 0.625000 0.250000
vt 0.375000 0.500000
vt 0.625000 0.500000
vt 0.375000 0.750000
vt 0.625000 0.750000
vt 0.625000 1.000000
vt 0.875000 0.000000
vt 0.875000 0.250000
vt 0.125000 0.000000
vt 0.125000 0.250000
vt 0.580274 0.500000
vt 0.580274 0.250000
vt 0.272124 0.352876
vt 0.272124 0.397124
vn 0.000000 0.000000 -1.000000
vn 0.000000 0.000000 -1.000000
vn 0.000000 0.000000 -1.000000
vn 0.000000 0.000000 -1.000000
vn 0.000000 -1.000000 0.000000
vn 0.000000 -1.000000 -0.000000
vn 0.000000 -1.000000 -0.000000
vn 0.000000 -1.000000 0.000000
vn 0.000000 -1.000000 -0.000000
vn 1.000000 0.000000 0.000000
vn 1.000000 0.000000 0.000000
vn 1.000000 0.000000 0.000000
vn 1.000000 0.000000 0.000000
vn -1.000000 0.000000 0.000000
vn -1.000000 0.000000 0.000000
vn -1.000000 0.000000 0.000000
vn -1.000000 0.000000 0.000000
vn 0.000000 0.000000 1.000000
vn 0.000000 0.000000 1.000000
vn 0.000000 0.000000 1.000000
vn 0.000000 0.000000 1.000000
vn 0.000000 1.000000 0.000000
vn 0.000000 1.000000 -0.000000
vn 0.000000 1.000000 -0.000000
vn 0.000000 1.000000 0.000000
vn 0.000000 1.000000 -0.000000
vn -0.707928 0.000000 0.706285
vn -0.707928 0.000000 0.706285
vn -0.707928 0.000000 0.706285
vn -0.707928 0.000000 0.706285
s 1
g pCube929
f 13/18/31 14/19/32 15/20/33
f 15/20/33 14/19/32 16/21/34
s 2
f 15/20/35 16/21/36 20/30/37
f 11/22/38 17/27/39 16/21/36
f 16/21/36 17/27/39 20/30/37
s 3
f 11/16/40 16/23/41 12/17/42
f 12/17/42 16/23/41 14/24/43
s 4
f 15/25/44 20/30/45 13/26/46
f 13/26/46 20/30/45 19/29/47
s 5
f 18/28/48 17/27/49 12/17/50
f 12/17/50 17/27/49 11/16/51
s 6
f 12/17/52 14/19/53 18/28/54
f 13/18/55 19/29/56 14/19/53
f 19/29/56 18/28/54 14/19/53
s 7
f 18/28/57 19/29/58 17/27/59
f 17/27/59 19/29/58 20/30/60
