# This file uses centimeters as units for non-parametric coordinates.

v -74.007616 -21.900002 -112.190352
v -57.752467 -21.900004 -112.190352
v -74.007616 -21.900002 -127.800048
v -57.752467 -21.899999 -127.800048
v -74.007616 -26.059946 -132.259958
v -57.752467 -26.059951 -132.259958
v -74.007616 -30.519859 -136.719868
v -57.752467 -30.519859 -136.719868
v -74.007616 -34.979778 -141.179790
v -57.752467 -34.979771 -141.179777
v -74.007616 -39.439708 -145.639687
v -57.752467 -39.439708 -145.639713
v -74.007616 -43.974806 -150.099623
v -57.752467 -43.974819 -150.099623
v -74.007616 -46.199371 -152.329564
v -57.752467 -46.199384 -152.329564
v -74.007623 -48.232132 -154.559532
v -57.752467 -48.232132 -154.559532
v -74.007616 -50.041667 -156.789501
v -57.752467 -50.041681 -156.789501
v -74.007616 -51.556183 -159.019442
v -57.752467 -51.556196 -159.019442
v -74.007616 -52.727603 -161.249397
v -57.752467 -52.727603 -161.249397
v -74.007616 -53.429099 -163.479352
v -57.752467 -53.429106 -163.479378
v -74.007616 -53.538496 -165.709333
v -57.752467 -53.538502 -165.709333
v -74.007616 -53.023281 -167.939274
v -57.752467 -53.023281 -167.939274
v -74.007616 -51.815834 -170.169229
v -57.752467 -51.815827 -170.169229
v -74.007616 -49.858383 -172.399184
v -57.752467 -49.858377 -172.399184
v -74.007616 -47.114004 -174.629126
v -57.752467 -47.114004 -174.629165
v -74.007616 -41.914354 -178.416764
v -57.752467 -41.914337 -178.416777
v -74.007616 -24.659523 -112.190352
v -57.752467 -24.659525 -112.190352
v -74.007616 -24.323042 -126.897098
v -57.752474 -24.323040 -126.897098
v -74.007616 -28.011226 -130.308688
v -57.752474 -28.011226 -130.308674
v -74.007616 -32.471135 -134.768611
v -57.752467 -32.471135 -134.768611
v -74.007616 -36.931055 -139.228520
v -57.752474 -36.931048 -139.228494
v -74.007616 -41.390981 -143.688403
v -57.752467 -41.390981 -143.688443
v -74.007623 -45.910957 -148.133479
v -57.752474 -45.910970 -148.133479
v -74.007623 -48.195879 -150.425612
v -57.752487 -48.195886 -150.425612
v -74.007630 -50.323210 -152.760624
v -57.752474 -50.323210 -152.760624
v -74.007623 -52.254463 -155.144894
v -57.752474 -52.254476 -155.144894
v -74.007623 -53.919074 -157.602600
v -57.752474 -53.919080 -157.602573
v -74.007616 -55.265258 -160.193700
v -57.752467 -55.265258 -160.193700
v -74.007616 -56.123382 -162.997691
v -57.752467 -56.123382 -162.997731
v -74.007616 -56.260950 -165.952330
v -57.752467 -56.260950 -165.952330
v -74.007616 -55.580933 -168.906848
v -57.752467 -55.580940 -168.906875
v -74.007616 -54.066078 -171.736413
v -57.752467 -54.066078 -171.736426
v -74.007616 -51.765419 -174.380214
v -57.752467 -51.765426 -174.380214
v -74.007616 -48.685920 -176.887883
v -57.752467 -48.685920 -176.887923
v -74.007616 -43.353784 -180.055718
v -57.752467 -43.353757 -180.055732
vt 0.617831 0.001586
vt 0.643681 0.001586
vt 0.620983 0.139347
vt 0.643681 0.147805
vt 0.604713 0.189582
vt 0.586434 0.171306
vt 0.544655 0.213083
vt 0.562936 0.231360
vt 0.502880 0.254858
vt 0.521157 0.273139
vt 0.461105 0.296637
vt 0.479382 0.314914
vt 0.436897 0.356693
vt 0.418764 0.338277
vt 0.416060 0.377581
vt 0.397361 0.359748
vt 0.397019 0.398468
vt 0.377433 0.381619
vt 0.380069 0.419360
vt 0.359342 0.403952
vt 0.365882 0.440247
vt 0.343748 0.426973
vt 0.354910 0.461135
vt 0.331141 0.451245
vt 0.348336 0.482022
vt 0.323097 0.477510
vt 0.347314 0.502914
vt 0.321813 0.505191
vt 0.328184 0.532864
vt 0.352139 0.523802
vt 0.342371 0.559370
vt 0.363453 0.544689
vt 0.363922 0.584136
vt 0.381788 0.565577
vt 0.392769 0.607626
vt 0.407492 0.586468
vt 0.442719 0.637301
vt 0.456200 0.621948
vt 0.947204 0.637303
vt 0.950356 0.499541
vt 0.973052 0.637303
vt 0.973052 0.491082
vt 0.934091 0.449299
vt 0.915814 0.467584
vt 0.874031 0.425801
vt 0.892307 0.407524
vt 0.832256 0.384026
vt 0.850532 0.365749
vt 0.790481 0.342250
vt 0.808757 0.323974
vt 0.766272 0.282190
vt 0.748139 0.300611
vt 0.745436 0.261303
vt 0.726737 0.279140
vt 0.726390 0.240415
vt 0.706804 0.257264
vt 0.709440 0.219528
vt 0.688722 0.234932
vt 0.695262 0.198640
vt 0.673124 0.211915
vt 0.684286 0.177753
vt 0.660517 0.187639
vt 0.677712 0.156865
vt 0.652473 0.161369
vt 0.676689 0.135969
vt 0.651188 0.133697
vt 0.657559 0.106024
vt 0.681514 0.115082
vt 0.671746 0.079517
vt 0.692828 0.094194
vt 0.693301 0.054752
vt 0.711164 0.073307
vt 0.722148 0.031262
vt 0.736868 0.052419
vt 0.772094 0.001586
vt 0.785571 0.016939
vt 0.154259 0.637299
vt 0.001992 0.637299
vt 0.154259 0.499538
vt 0.001992 0.499538
vt 0.154259 0.467580
vt 0.001992 0.467580
vt 0.154259 0.425803
vt 0.001992 0.425803
vt 0.154259 0.384028
vt 0.001992 0.384028
vt 0.154259 0.342248
vt 0.001992 0.342248
vt 0.154259 0.300609
vt 0.001992 0.300609
vt 0.001992 0.279138
vt 0.154259 0.279138
vt 0.001992 0.257266
vt 0.154259 0.257266
vt 0.001992 0.234934
vt 0.154259 0.234934
vt 0.001992 0.211913
vt 0.154259 0.211913
vt 0.001992 0.187641
vt 0.154259 0.187641
vt 0.001992 0.161375
vt 0.154259 0.161371
vt 0.001992 0.133694
vt 0.154259 0.133694
vt 0.001992 0.106022
vt 0.154259 0.106022
vt 0.001992 0.079515
vt 0.154259 0.079515
vt 0.001992 0.054749
vt 0.154259 0.054749
vt 0.001992 0.031259
vt 0.154259 0.031259
vt 0.154259 0.001584
vt 0.001992 0.001584
vt 0.314267 0.147801
vt 0.162001 0.147801
vt 0.314267 0.001580
vt 0.162001 0.189585
vt 0.162001 0.001580
vt 0.314267 0.189585
vt 0.162001 0.231360
vt 0.314267 0.231360
vt 0.162001 0.273135
vt 0.314267 0.273135
vt 0.162001 0.314910
vt 0.314267 0.314910
vt 0.162001 0.356693
vt 0.314267 0.356693
vt 0.314267 0.377581
vt 0.162001 0.377581
vt 0.314267 0.398468
vt 0.162001 0.398468
vt 0.314267 0.419356
vt 0.162001 0.419356
vt 0.314267 0.440243
vt 0.162001 0.440243
vt 0.314267 0.461131
vt 0.162001 0.461131
vt 0.314267 0.482018
vt 0.162001 0.482018
vt 0.314267 0.502914
vt 0.162001 0.502914
vt 0.314267 0.523802
vt 0.162001 0.523802
vt 0.314267 0.544689
vt 0.162001 0.544689
vt 0.314267 0.565577
vt 0.162001 0.565577
vt 0.314267 0.586464
vt 0.162001 0.586464
vt 0.314267 0.621944
vt 0.162001 0.621944
vt 0.314267 0.637297
vt 0.162001 0.637297
vt 0.972156 0.793561
vt 0.972156 0.641294
vt 0.998008 0.793561
vt 0.998008 0.641294
vn -0.000000 -0.999738 -0.022874
vn 0.000000 -0.999738 -0.022874
vn 0.000000 -0.983316 0.181903
vn -0.000000 -0.983316 0.181903
vn -0.000000 -0.694795 0.719208
vn -0.000000 -0.694795 0.719208
vn -0.000000 -0.707107 0.707107
vn -0.000000 -0.707107 0.707107
vn -0.000001 -0.707106 0.707107
vn 0.000000 -0.707105 0.707108
vn 0.000001 -0.704137 0.710064
vn 0.000001 -0.704137 0.710064
vn 0.000001 -0.703562 0.710634
vn -0.000001 -0.703564 0.710632
vn -0.000000 -0.723713 0.690101
vn -0.000000 -0.723712 0.690102
vn -0.000000 -0.758184 0.652040
vn -0.000000 -0.758185 0.652039
vn -0.000001 -0.802824 0.596216
vn -0.000000 -0.802825 0.596214
vn -0.000001 -0.858879 0.512179
vn -0.000001 -0.858877 0.512182
vn 0.000000 -0.925716 0.378220
vn -0.000000 -0.925714 0.378226
vn 0.000000 -0.985379 0.170375
vn 0.000000 -0.985379 0.170377
vn -0.000000 -0.995813 -0.091413
vn 0.000000 -0.995813 -0.091413
vn -0.000001 -0.934949 -0.354781
vn -0.000001 -0.934949 -0.354783
vn -0.000000 -0.820345 -0.571869
vn -0.000001 -0.820346 -0.571868
vn -0.000001 -0.691591 -0.722290
vn -0.000000 -0.691589 -0.722291
vn -0.000002 -0.559313 -0.828956
vn -0.000000 -0.559313 -0.828956
vn 0.000000 -0.510763 -0.859722
vn -0.000001 -0.510759 -0.859724
vn -0.000000 0.979187 -0.202962
vn -0.000000 0.979187 -0.202962
vn -0.000000 1.000000 0.000000
vn 0.000000 1.000000 0.000000
vn 0.000000 0.719094 -0.694912
vn 0.000000 0.719094 -0.694912
vn 0.000000 0.707107 -0.707107
vn 0.000000 0.707107 -0.707107
vn -0.000000 0.707106 -0.707107
vn 0.000000 0.707106 -0.707108
vn -0.000001 0.704133 -0.710069
vn -0.000001 0.704133 -0.710068
vn 0.000001 0.703426 -0.710769
vn -0.000000 0.703428 -0.710767
vn 0.000000 0.723344 -0.690487
vn 0.000001 0.723346 -0.690486
vn 0.000000 0.757618 -0.652698
vn 0.000000 0.757618 -0.652698
vn 0.000001 0.801798 -0.597595
vn 0.000000 0.801797 -0.597596
vn 0.000000 0.856645 -0.515907
vn 0.000001 0.856646 -0.515905
vn -0.000000 0.922000 -0.387189
vn 0.000000 0.922002 -0.387186
vn 0.000000 0.983870 -0.178884
vn 0.000000 0.983870 -0.178886
vn 0.000000 0.995886 0.090618
vn 0.000000 0.995886 0.090619
vn -0.000000 0.932832 0.360311
vn 0.000000 0.932831 0.360314
vn -0.000000 0.815525 0.578722
vn -0.000000 0.815523 0.578724
vn 0.000001 0.688195 0.725526
vn -0.000000 0.688198 0.725523
vn 0.000001 0.603817 0.797123
vn 0.000001 0.603818 0.797122
vn 0.000000 0.588789 0.808287
vn 0.000001 0.588786 0.808289
vn -1.000000 0.000000 0.000000
vn -1.000000 0.000000 0.000000
vn -1.000000 0.000000 0.000000
vn -1.000000 0.000000 0.000000
vn 0.000000 0.000000 1.000000
vn -0.000000 0.000000 1.000000
vn 0.000000 0.000000 1.000000
vn -0.000000 0.000000 1.000000
vn 1.000000 0.000000 -0.000000
vn 1.000000 -0.000003 0.000000
vn 1.000000 -0.000000 -0.000000
vn 1.000000 -0.000003 0.000001
vn -1.000000 -0.000000 0.000000
vn -1.000000 0.000000 0.000000
vn 1.000000 -0.000001 0.000002
vn 1.000000 -0.000001 0.000002
vn -1.000000 0.000000 0.000000
vn -1.000000 0.000000 0.000000
vn 1.000000 -0.000001 -0.000000
vn 1.000000 -0.000001 -0.000000
vn -1.000000 -0.000000 0.000000
vn -1.000000 -0.000000 0.000000
vn 1.000000 -0.000001 0.000002
vn 1.000000 -0.000001 0.000002
vn -1.000000 0.000000 -0.000000
vn -1.000000 0.000000 0.000000
vn 1.000000 -0.000000 0.000000
vn 1.000000 0.000000 0.000000
vn -1.000000 0.000002 -0.000001
vn -1.000000 0.000002 -0.000001
vn 1.000000 -0.000003 0.000001
vn 1.000000 -0.000002 0.000001
vn -1.000000 0.000002 -0.000001
vn -1.000000 0.000002 -0.000001
vn 1.000000 -0.000005 0.000003
vn 1.000000 -0.000005 0.000003
vn -1.000000 0.000002 -0.000002
vn -1.000000 0.000002 -0.000002
vn 1.000000 -0.000002 0.000003
vn 1.000000 -0.000001 0.000003
vn -1.000000 0.000001 -0.000002
vn -1.000000 0.000001 -0.000002
vn 1.000000 -0.000002 0.000001
vn 1.000000 -0.000002 0.000001
vn -1.000000 0.000001 -0.000002
vn -1.000000 0.000002 -0.000001
vn 1.000000 -0.000002 0.000001
vn 1.000000 -0.000002 0.000002
vn -1.000000 -0.000000 -0.000001
vn -1.000000 0.000000 -0.000001
vn 1.000000 -0.000000 0.000001
vn 1.000000 0.000000 0.000001
vn -1.000000 -0.000000 0.000000
vn -1.000000 -0.000000 0.000000
vn 1.000000 -0.000000 0.000000
vn 1.000000 0.000000 0.000000
vn -1.000000 0.000000 0.000000
vn -1.000000 0.000000 0.000000
vn 1.000000 -0.000000 0.000000
vn 1.000000 0.000000 0.000000
vn -1.000000 -0.000000 0.000000
vn -1.000000 -0.000000 0.000000
vn 1.000000 -0.000000 0.000000
vn 1.000000 0.000000 0.000000
vn -1.000000 0.000000 0.000000
vn -1.000000 -0.000000 0.000000
vn 1.000000 0.000000 0.000000
vn 1.000000 -0.000000 0.000000
vn -1.000000 -0.000000 0.000000
vn -1.000000 -0.000000 0.000000
vn 1.000000 -0.000000 0.000000
vn 1.000000 -0.000000 0.000000
vn -1.000000 0.000000 0.000000
vn -1.000000 0.000000 0.000000
vn 1.000000 0.000000 0.000000
vn 1.000000 0.000000 0.000000
vn -0.000002 0.751361 -0.659892
vn -0.000002 0.751361 -0.659892
vn -0.000001 0.751363 -0.659889
vn -0.000001 0.751363 -0.659889
vn -1.000000 0.000000 0.000000
vn -1.000000 0.000000 0.000000
vn 1.000000 0.000000 0.000000
vn 1.000000 0.000000 0.000000
f 40/77/1 39/78/2 42/79/3
f 42/79/3 39/78/2 41/80/4
f 42/79/3 41/80/4 44/81/5
f 44/81/5 41/80/4 43/82/6
f 44/81/5 43/82/6 46/83/7
f 46/83/7 43/82/6 45/84/8
f 46/83/7 45/84/8 48/85/9
f 48/85/9 45/84/8 47/86/10
f 48/85/9 47/86/10 50/87/11
f 50/87/11 47/86/10 49/88/12
f 50/87/11 49/88/12 52/89/13
f 52/89/13 49/88/12 51/90/14
f 54/92/15 52/89/13 53/91/16
f 53/91/16 52/89/13 51/90/14
f 56/94/17 54/92/15 55/93/18
f 55/93/18 54/92/15 53/91/16
f 58/96/19 56/94/17 57/95/20
f 57/95/20 56/94/17 55/93/18
f 60/98/21 58/96/19 59/97/22
f 59/97/22 58/96/19 57/95/20
f 62/100/23 60/98/21 61/99/24
f 61/99/24 60/98/21 59/97/22
f 64/102/25 62/100/23 63/101/26
f 63/101/26 62/100/23 61/99/24
f 66/104/27 64/102/25 65/103/28
f 65/103/28 64/102/25 63/101/26
f 68/106/29 66/104/27 67/105/30
f 67/105/30 66/104/27 65/103/28
f 70/108/31 68/106/29 69/107/32
f 69/107/32 68/106/29 67/105/30
f 72/110/33 70/108/31 71/109/34
f 71/109/34 70/108/31 69/107/32
f 74/112/35 72/110/33 73/111/36
f 73/111/36 72/110/33 71/109/34
f 75/114/37 76/113/38 73/111/36
f 73/111/36 76/113/38 74/112/35
f 4/115/39 3/116/40 2/117/41
f 2/117/41 3/116/40 1/119/42
f 6/120/43 5/118/44 4/115/39
f 4/115/39 5/118/44 3/116/40
f 8/122/45 7/121/46 6/120/43
f 6/120/43 7/121/46 5/118/44
f 10/124/47 9/123/48 8/122/45
f 8/122/45 9/123/48 7/121/46
f 12/126/49 11/125/50 10/124/47
f 10/124/47 11/125/50 9/123/48
f 14/128/51 13/127/52 12/126/49
f 12/126/49 13/127/52 11/125/50
f 15/130/53 13/127/52 16/129/54
f 16/129/54 13/127/52 14/128/51
f 17/132/55 15/130/53 18/131/56
f 18/131/56 15/130/53 16/129/54
f 19/134/57 17/132/55 20/133/58
f 20/133/58 17/132/55 18/131/56
f 21/136/59 19/134/57 22/135/60
f 22/135/60 19/134/57 20/133/58
f 23/138/61 21/136/59 24/137/62
f 24/137/62 21/136/59 22/135/60
f 25/140/63 23/138/61 26/139/64
f 26/139/64 23/138/61 24/137/62
f 27/142/65 25/140/63 28/141/66
f 28/141/66 25/140/63 26/139/64
f 29/144/67 27/142/65 30/143/68
f 30/143/68 27/142/65 28/141/66
f 31/146/69 29/144/67 32/145/70
f 32/145/70 29/144/67 30/143/68
f 33/148/71 31/146/69 34/147/72
f 34/147/72 31/146/69 32/145/70
f 35/150/73 33/148/71 36/149/74
f 36/149/74 33/148/71 34/147/72
f 37/152/75 35/150/73 38/151/76
f 38/151/76 35/150/73 36/149/74
f 39/1/77 1/2/78 41/3/79
f 41/3/79 1/2/78 3/4/80
f 39/155/81 40/156/82 1/157/83
f 1/157/83 40/156/82 2/158/84
f 40/39/85 42/40/86 2/41/87
f 2/41/87 42/40/86 4/42/88
f 3/4/80 5/5/89 41/3/79
f 41/3/79 5/5/89 43/6/90
f 44/44/91 6/43/92 42/40/86
f 42/40/86 6/43/92 4/42/88
f 43/6/90 5/5/89 45/7/93
f 45/7/93 5/5/89 7/8/94
f 44/44/91 46/45/95 6/43/92
f 6/43/92 46/45/95 8/46/96
f 45/7/93 7/8/94 47/9/97
f 47/9/97 7/8/94 9/10/98
f 46/45/95 48/47/99 8/46/96
f 8/46/96 48/47/99 10/48/100
f 47/9/97 9/10/98 49/11/101
f 49/11/101 9/10/98 11/12/102
f 48/47/99 50/49/103 10/48/100
f 10/48/100 50/49/103 12/50/104
f 11/12/102 13/13/105 49/11/101
f 49/11/101 13/13/105 51/14/106
f 52/52/107 14/51/108 50/49/103
f 50/49/103 14/51/108 12/50/104
f 53/16/109 51/14/106 15/15/110
f 15/15/110 51/14/106 13/13/105
f 14/51/108 52/52/107 16/53/111
f 16/53/111 52/52/107 54/54/112
f 55/18/113 53/16/109 17/17/114
f 17/17/114 53/16/109 15/15/110
f 16/53/111 54/54/112 18/55/115
f 18/55/115 54/54/112 56/56/116
f 57/20/117 55/18/113 19/19/118
f 19/19/118 55/18/113 17/17/114
f 18/55/115 56/56/116 20/57/119
f 20/57/119 56/56/116 58/58/120
f 59/22/121 57/20/117 21/21/122
f 21/21/122 57/20/117 19/19/118
f 20/57/119 58/58/120 22/59/123
f 22/59/123 58/58/120 60/60/124
f 61/24/125 59/22/121 23/23/126
f 23/23/126 59/22/121 21/21/122
f 22/59/123 60/60/124 24/61/127
f 24/61/127 60/60/124 62/62/128
f 63/26/129 61/24/125 25/25/130
f 25/25/130 61/24/125 23/23/126
f 24/61/127 62/62/128 26/63/131
f 26/63/131 62/62/128 64/64/132
f 65/28/133 63/26/129 27/27/134
f 27/27/134 63/26/129 25/25/130
f 26/63/131 64/64/132 28/65/135
f 28/65/135 64/64/132 66/66/136
f 29/30/137 67/29/138 27/27/134
f 27/27/134 67/29/138 65/28/133
f 66/66/136 68/67/139 28/65/135
f 28/65/135 68/67/139 30/68/140
f 31/32/141 69/31/142 29/30/137
f 29/30/137 69/31/142 67/29/138
f 68/67/139 70/69/143 30/68/140
f 30/68/140 70/69/143 32/70/144
f 33/34/145 71/33/146 31/32/141
f 31/32/141 71/33/146 69/31/142
f 70/69/143 72/71/147 32/70/144
f 32/70/144 72/71/147 34/72/148
f 35/36/149 73/35/150 33/34/145
f 33/34/145 73/35/150 71/33/146
f 72/71/147 74/73/151 34/72/148
f 34/72/148 74/73/151 36/74/152
f 75/154/153 37/152/154 76/153/155
f 76/153/155 37/152/154 38/151/156
f 37/38/157 75/37/158 35/36/149
f 35/36/149 75/37/158 73/35/150
f 74/73/151 76/75/159 36/74/152
f 36/74/152 76/75/159 38/76/160
